<mxfile host="Electron" agent="Mozilla/5.0 (Windows NT 10.0; Win64; x64) AppleWebKit/537.36 (KHTML, like Gecko) draw.io/26.0.3 Chrome/130.0.6723.137 Electron/33.2.1 Safari/537.36" version="26.0.3" pages="2">
  <diagram name="Project Scope" id="McsNOYd1awC_-GSTT8ix">
    <mxGraphModel dx="686" dy="409" grid="1" gridSize="10" guides="1" tooltips="1" connect="1" arrows="1" fold="0" page="1" pageScale="1" pageWidth="280" pageHeight="140" math="0" shadow="0">
      <root>
        <mxCell id="0" />
        <mxCell id="1" parent="0" />
        <mxCell id="0ag0ew79iEDbAjZ4XW5W-1" value="&lt;h1 style=&quot;margin-top: 0px;&quot;&gt;Vacuum Former&lt;/h1&gt;&lt;p&gt;Medium format vacuum former designed to form difficult materials such as PC used for car bodies and visors.&lt;/p&gt;" style="text;html=1;whiteSpace=wrap;overflow=hidden;rounded=0;" parent="1" vertex="1">
          <mxGeometry x="20" y="20" width="240" height="100" as="geometry" />
        </mxCell>
      </root>
    </mxGraphModel>
  </diagram>
  <diagram id="FQ1nKd3-7XS8y8ytSOO6" name="Brainstorm">
    <mxGraphModel dx="1419" dy="847" grid="1" gridSize="10" guides="1" tooltips="1" connect="1" arrows="1" fold="1" page="1" pageScale="1" pageWidth="1200" pageHeight="1000" math="0" shadow="0">
      <root>
        <mxCell id="0" />
        <mxCell id="1" parent="0" />
      </root>
    </mxGraphModel>
  </diagram>
</mxfile>
